<svg width="1440" height="296" viewBox="0 0 1440 296" fill="none" xmlns="http://www.w3.org/2000/svg">
<g clip-path="url(#clip0_401_609)">
<rect width="1440" height="296" fill="#0B1B2B"/>
<g filter="url(#filter0_f_401_609)">
<circle cx="-12" cy="22" r="118" fill="#14589C"/>
</g>
<g filter="url(#filter1_f_401_609)">
<circle cx="1355.07" cy="42.9365" r="77.6256" transform="rotate(15 1355.07 42.9365)" fill="#14589C"/>
</g>
<rect x="212" y="125" width="69" height="3" rx="1.5" fill="#1562AF" fill-opacity="0.14"/>
<rect x="99" y="125" width="106" height="3" rx="1.5" fill="#1562AF" fill-opacity="0.14"/>
<rect y="125" width="92" height="3" rx="1.5" fill="#1562AF" fill-opacity="0.14"/>
<rect x="287" y="125" width="77" height="3" rx="1.5" fill="#1562AF" fill-opacity="0.34"/>
<rect x="328" y="136" width="36" height="3" rx="1.5" fill="#1562AF" fill-opacity="0.14"/>
<rect x="184" y="136" width="137" height="3" rx="1.5" fill="#1562AF" fill-opacity="0.14"/>
<rect x="72" y="136" width="105" height="3" rx="1.5" fill="#1562AF" fill-opacity="0.34"/>
<rect y="136" width="65" height="3" rx="1.5" fill="#1562AF" fill-opacity="0.14"/>
<rect y="70" width="144" height="3" rx="1.5" fill="#1562AF" fill-opacity="0.14"/>
<rect x="151" y="70" width="136" height="3" rx="1.5" fill="#1562AF" fill-opacity="0.34"/>
<rect width="46" height="3" rx="1.5" transform="matrix(-1 0 0 1 340 70)" fill="#1562AF" fill-opacity="0.14"/>
<rect x="122" y="81" width="111" height="3" rx="1.5" fill="#1562AF" fill-opacity="0.14"/>
<rect x="122" y="222" width="111" height="3" rx="1.5" fill="#1562AF" fill-opacity="0.14"/>
<rect y="81" width="115" height="3" rx="1.5" fill="#1562AF" fill-opacity="0.34"/>
<rect y="222" width="115" height="3" rx="1.5" fill="#1562AF" fill-opacity="0.34"/>
<rect x="275" y="81" width="28" height="3" rx="1.5" fill="#1562AF" fill-opacity="0.34"/>
<rect x="240" y="81" width="28" height="3" rx="1.5" fill="#1562AF" fill-opacity="0.14"/>
<rect x="240" y="222" width="37" height="3" rx="1.5" fill="#1562AF" fill-opacity="0.14"/>
<rect x="310" y="81" width="83" height="3" rx="1.5" fill="#1562AF" fill-opacity="0.14"/>
<rect x="284" y="92" width="89" height="3" rx="1.5" fill="#1562AF" fill-opacity="0.14"/>
<rect x="284" y="233" width="19" height="3" rx="1.5" fill="#1562AF" fill-opacity="0.14"/>
<rect x="134" y="92" width="143" height="3" rx="1.5" fill="#1562AF" fill-opacity="0.34"/>
<rect x="134" y="233" width="143" height="3" rx="1.5" fill="#1562AF" fill-opacity="0.34"/>
<rect x="95" y="92" width="32" height="3" rx="1.5" fill="#1562AF" fill-opacity="0.14"/>
<rect x="95" y="233" width="32" height="3" rx="1.5" fill="#1562AF" fill-opacity="0.14"/>
<rect y="92" width="88" height="3" rx="1.5" fill="#1562AF" fill-opacity="0.14"/>
<rect y="233" width="88" height="3" rx="1.5" fill="#1562AF" fill-opacity="0.14"/>
<rect x="349" y="103" width="60" height="3" rx="1.5" fill="#1562AF" fill-opacity="0.34"/>
<rect x="201" y="103" width="142" height="3" rx="1.5" fill="#1562AF" fill-opacity="0.14"/>
<rect x="201" y="244" width="51" height="3" rx="1.5" fill="#1562AF" fill-opacity="0.14"/>
<rect x="259" y="244" width="62" height="3" rx="1.5" fill="#1562AF" fill-opacity="0.34"/>
<rect x="163" y="103" width="31" height="3" rx="1.5" fill="#1562AF" fill-opacity="0.14"/>
<rect x="106" y="103" width="51" height="3" rx="1.5" fill="#1562AF" fill-opacity="0.14"/>
<rect x="106" y="244" width="88" height="3" rx="1.5" fill="#1562AF" fill-opacity="0.14"/>
<rect x="32" y="103" width="67" height="3" rx="1.5" fill="#1562AF" fill-opacity="0.34"/>
<rect y="244" width="99" height="3" rx="1.5" fill="#1562AF" fill-opacity="0.34"/>
<rect y="103" width="25" height="3" rx="1.5" fill="#1562AF" fill-opacity="0.14"/>
<rect y="114" width="72" height="3" rx="1.5" fill="#1562AF" fill-opacity="0.34"/>
<rect y="255" width="72" height="3" rx="1.5" fill="#1562AF" fill-opacity="0.14"/>
<rect x="79" y="114" width="97" height="3" rx="1.5" fill="#1562AF" fill-opacity="0.14"/>
<rect x="79" y="255" width="55" height="3" rx="1.5" fill="#1562AF" fill-opacity="0.34"/>
<rect width="61" height="3" rx="1.5" transform="matrix(-1 0 0 1 1250 197)" fill="#1562AF" fill-opacity="0.14"/>
<rect width="94" height="3" rx="1.5" transform="matrix(-1 0 0 1 1350 197)" fill="#1562AF" fill-opacity="0.34"/>
<rect width="82" height="3" rx="1.5" transform="matrix(-1 0 0 1 1438 197)" fill="#1562AF" fill-opacity="0.14"/>
<rect width="68" height="3" rx="1.5" transform="matrix(-1 0 0 1 1183 197)" fill="#1562AF" fill-opacity="0.34"/>
<rect width="42" height="3" rx="1.5" transform="matrix(-1 0 0 1 1109 208)" fill="#1562AF" fill-opacity="0.34"/>
<rect width="32" height="3" rx="1.5" transform="matrix(-1 0 0 1 1147 208)" fill="#1562AF" fill-opacity="0.14"/>
<rect width="122" height="3" rx="1.5" transform="matrix(-1 0 0 1 1275 208)" fill="#1562AF" fill-opacity="0.14"/>
<rect width="93" height="3" rx="1.5" transform="matrix(-1 0 0 1 1374 208)" fill="#1562AF" fill-opacity="0.14"/>
<rect width="58" height="3" rx="1.5" transform="matrix(-1 0 0 1 1438 208)" fill="#1562AF" fill-opacity="0.34"/>
<rect width="118" height="3" rx="1.5" transform="matrix(-1 0 0 1 1438 30)" fill="#1562AF" fill-opacity="0.14"/>
<rect width="128" height="3" rx="1.5" transform="matrix(-1 0 0 1 1438 219)" fill="#1562AF" fill-opacity="0.14"/>
<rect width="112" height="3" rx="1.5" transform="matrix(-1 0 0 1 1314 30)" fill="#1562AF" fill-opacity="0.34"/>
<rect width="121" height="3" rx="1.5" transform="matrix(-1 0 0 1 1257 219)" fill="#1562AF" fill-opacity="0.14"/>
<rect x="1158" y="30" width="38" height="3" rx="1.5" fill="#1562AF" fill-opacity="0.14"/>
<rect x="1263" y="219" width="41" height="3" rx="1.5" fill="#1562AF" fill-opacity="0.34"/>
<rect width="92" height="3" rx="1.5" transform="matrix(-1 0 0 1 1338 41)" fill="#1562AF" fill-opacity="0.14"/>
<rect width="99" height="3" rx="1.5" transform="matrix(-1 0 0 1 1330 230)" fill="#1562AF" fill-opacity="0.14"/>
<rect width="94" height="3" rx="1.5" transform="matrix(-1 0 0 1 1438 41)" fill="#1562AF" fill-opacity="0.34"/>
<rect width="102" height="3" rx="1.5" transform="matrix(-1 0 0 1 1438 230)" fill="#1562AF" fill-opacity="0.34"/>
<rect width="23" height="3" rx="1.5" transform="matrix(-1 0 0 1 1212 41)" fill="#1562AF" fill-opacity="0.34"/>
<rect width="23" height="3" rx="1.5" transform="matrix(-1 0 0 1 1241 41)" fill="#1562AF" fill-opacity="0.14"/>
<rect width="62" height="3" rx="1.5" transform="matrix(-1 0 0 1 1225 230)" fill="#1562AF" fill-opacity="0.34"/>
<rect width="68" height="3" rx="1.5" transform="matrix(-1 0 0 1 1183 41)" fill="#1562AF" fill-opacity="0.14"/>
<rect width="79" height="3" rx="1.5" transform="matrix(-1 0 0 1 1186 84)" fill="#1562AF" fill-opacity="0.14"/>
<rect width="79" height="3" rx="1.5" transform="matrix(-1 0 0 1 1186 241)" fill="#1562AF" fill-opacity="0.34"/>
<rect width="127" height="3" rx="1.5" transform="matrix(-1 0 0 1 1319 84)" fill="#1562AF" fill-opacity="0.14"/>
<rect width="127" height="3" rx="1.5" transform="matrix(-1 0 0 1 1319 241)" fill="#1562AF" fill-opacity="0.14"/>
<rect width="29" height="3" rx="1.5" transform="matrix(-1 0 0 1 1354 84)" fill="#1562AF" fill-opacity="0.34"/>
<rect width="29" height="3" rx="1.5" transform="matrix(-1 0 0 1 1354 241)" fill="#1562AF" fill-opacity="0.34"/>
<rect width="78" height="3" rx="1.5" transform="matrix(-1 0 0 1 1438 84)" fill="#1562AF" fill-opacity="0.14"/>
<rect width="78" height="3" rx="1.5" transform="matrix(-1 0 0 1 1438 241)" fill="#1562AF" fill-opacity="0.14"/>
<rect width="53" height="3" rx="1.5" transform="matrix(-1 0 0 1 1128 95)" fill="#1562AF" fill-opacity="0.34"/>
<rect width="53" height="3" rx="1.5" transform="matrix(-1 0 0 1 1128 252)" fill="#1562AF" fill-opacity="0.14"/>
<rect width="126" height="3" rx="1.5" transform="matrix(-1 0 0 1 1260 95)" fill="#1562AF" fill-opacity="0.14"/>
<rect width="126" height="3" rx="1.5" transform="matrix(-1 0 0 1 1260 252)" fill="#1562AF" fill-opacity="0.14"/>
<rect width="27" height="3" rx="1.5" transform="matrix(-1 0 0 1 1293 95)" fill="#1562AF" fill-opacity="0.34"/>
<rect width="45" height="3" rx="1.5" transform="matrix(-1 0 0 1 1344 95)" fill="#1562AF" fill-opacity="0.14"/>
<rect width="78" height="3" rx="1.5" transform="matrix(-1 0 0 1 1344 252)" fill="#1562AF" fill-opacity="0.34"/>
<rect width="60" height="3" rx="1.5" transform="matrix(-1 0 0 1 1410 95)" fill="#1562AF" fill-opacity="0.14"/>
<rect width="88" height="3" rx="1.5" transform="matrix(-1 0 0 1 1438 252)" fill="#1562AF" fill-opacity="0.14"/>
<rect width="22" height="3" rx="1.5" transform="matrix(-1 0 0 1 1438 95)" fill="#1562AF" fill-opacity="0.14"/>
<rect width="64" height="3" rx="1.5" transform="matrix(-1 0 0 1 1438 106)" fill="#1562AF" fill-opacity="0.34"/>
<rect width="64" height="3" rx="1.5" transform="matrix(-1 0 0 1 1438 263)" fill="#1562AF" fill-opacity="0.34"/>
<rect width="86" height="3" rx="1.5" transform="matrix(-1 0 0 1 1368 106)" fill="#1562AF" fill-opacity="0.14"/>
<rect width="154" height="3" rx="1.5" transform="matrix(-1 0 0 1 1368 263)" fill="#1562AF" fill-opacity="0.14"/>
<g filter="url(#filter2_f_401_609)">
<rect x="272" y="235" width="891" height="52" fill="#14589C"/>
</g>
<g clip-path="url(#clip1_401_609)">
<path d="M716.235 82.7646L716.235 82.7647C716.919 83.4483 716.919 84.5516 716.235 85.2353L716.235 85.2353L701.238 100.235C700.554 100.919 699.446 100.919 698.763 100.235C698.079 99.5517 698.079 98.4483 698.763 97.7646L698.763 97.7646L711.991 84.5302L712.521 83.9999L711.991 83.4697L698.763 70.2377C698.763 70.2377 698.763 70.2377 698.763 70.2377C698.079 69.5541 698.079 68.4462 698.762 67.7625C698.762 67.7625 698.762 67.7625 698.762 67.7624C698.762 67.7624 698.763 67.7623 698.763 67.7623C699.446 67.0795 700.554 67.0795 701.238 67.7625C701.238 67.7625 701.238 67.7625 701.238 67.7626L716.235 82.7646ZM740 97.25C740.969 97.25 741.75 98.0314 741.75 99C741.75 99.9686 740.969 100.75 740 100.75H717.5C716.531 100.75 715.75 99.9686 715.75 99C715.75 98.0314 716.531 97.25 717.5 97.25H740Z" stroke="#3294F8" stroke-width="1.5"/>
</g>
<path d="M654.395 151H652.016V133.539H654.395V151ZM669.828 145.879C669.828 146.387 669.812 146.848 669.781 147.262C669.75 147.668 669.691 148.043 669.605 148.387C669.527 148.723 669.441 149.02 669.348 149.277C669.254 149.535 669.121 149.766 668.949 149.969C668.777 150.164 668.605 150.332 668.434 150.473C668.27 150.613 668.051 150.734 667.777 150.836C667.512 150.93 667.254 151.004 667.004 151.059C666.754 151.121 666.441 151.168 666.066 151.199C665.691 151.23 665.332 151.25 664.988 151.258C664.652 151.273 664.238 151.281 663.746 151.281C662.816 151.281 662.035 151.254 661.402 151.199C660.777 151.145 660.242 151.027 659.797 150.848C659.359 150.668 659.02 150.484 658.777 150.297C658.535 150.102 658.344 149.797 658.203 149.383C658.062 148.961 657.969 148.559 657.922 148.176C657.883 147.793 657.848 147.25 657.816 146.547L659.984 146.195C660.008 146.367 660.031 146.609 660.055 146.922C660.102 147.406 660.145 147.75 660.184 147.953C660.23 148.148 660.316 148.367 660.441 148.609C660.566 148.852 660.762 149.012 661.027 149.09C661.293 149.16 661.641 149.223 662.07 149.277C662.5 149.332 663.074 149.359 663.793 149.359C664.387 149.359 664.875 149.344 665.258 149.312C665.641 149.281 665.977 149.219 666.266 149.125C666.555 149.023 666.773 148.91 666.922 148.785C667.07 148.66 667.188 148.469 667.273 148.211C667.367 147.945 667.426 147.672 667.449 147.391C667.473 147.109 667.48 146.734 667.473 146.266C667.465 145.234 667.406 144.523 667.297 144.133C667.195 143.734 666.973 143.5 666.629 143.43L660.793 142.41C659.777 142.238 659.07 141.852 658.672 141.25C658.273 140.648 658.062 139.676 658.039 138.332C658.039 137.613 658.074 137 658.145 136.492C658.223 135.977 658.352 135.527 658.531 135.145C658.719 134.754 658.945 134.441 659.211 134.207C659.484 133.973 659.84 133.785 660.277 133.645C660.723 133.496 661.207 133.398 661.73 133.352C662.262 133.297 662.91 133.27 663.676 133.27C664.301 133.27 664.836 133.285 665.281 133.316C665.734 133.34 666.172 133.387 666.594 133.457C667.023 133.527 667.379 133.625 667.66 133.75C667.941 133.875 668.199 134.039 668.434 134.242C668.676 134.438 668.863 134.68 668.996 134.969C669.129 135.25 669.23 135.582 669.301 135.965C669.371 136.348 669.406 136.789 669.406 137.289L667.32 137.77C667.242 136.91 667.191 136.422 667.168 136.305C667.074 135.906 666.852 135.637 666.5 135.496C666.109 135.332 665.293 135.25 664.051 135.25C663.371 135.25 662.809 135.27 662.363 135.309C661.926 135.348 661.566 135.406 661.285 135.484C661.004 135.555 660.793 135.664 660.652 135.812C660.52 135.961 660.43 136.121 660.383 136.293C660.336 136.457 660.312 136.676 660.312 136.949V138.977C660.312 139.711 660.633 140.133 661.273 140.242L665.469 140.957C665.859 141.02 666.172 141.074 666.406 141.121C666.641 141.168 666.91 141.23 667.215 141.309C667.52 141.387 667.758 141.469 667.93 141.555C668.102 141.641 668.293 141.75 668.504 141.883C668.715 142.016 668.879 142.164 668.996 142.328C669.113 142.492 669.23 142.688 669.348 142.914C669.473 143.141 669.562 143.398 669.617 143.688C669.68 143.969 669.73 144.293 669.77 144.66C669.809 145.02 669.828 145.426 669.828 145.879ZM684.523 145.879C684.523 146.387 684.508 146.848 684.477 147.262C684.445 147.668 684.387 148.043 684.301 148.387C684.223 148.723 684.137 149.02 684.043 149.277C683.949 149.535 683.816 149.766 683.645 149.969C683.473 150.164 683.301 150.332 683.129 150.473C682.965 150.613 682.746 150.734 682.473 150.836C682.207 150.93 681.949 151.004 681.699 151.059C681.449 151.121 681.137 151.168 680.762 151.199C680.387 151.23 680.027 151.25 679.684 151.258C679.348 151.273 678.934 151.281 678.441 151.281C677.512 151.281 676.73 151.254 676.098 151.199C675.473 151.145 674.938 151.027 674.492 150.848C674.055 150.668 673.715 150.484 673.473 150.297C673.23 150.102 673.039 149.797 672.898 149.383C672.758 148.961 672.664 148.559 672.617 148.176C672.578 147.793 672.543 147.25 672.512 146.547L674.68 146.195C674.703 146.367 674.727 146.609 674.75 146.922C674.797 147.406 674.84 147.75 674.879 147.953C674.926 148.148 675.012 148.367 675.137 148.609C675.262 148.852 675.457 149.012 675.723 149.09C675.988 149.16 676.336 149.223 676.766 149.277C677.195 149.332 677.77 149.359 678.488 149.359C679.082 149.359 679.57 149.344 679.953 149.312C680.336 149.281 680.672 149.219 680.961 149.125C681.25 149.023 681.469 148.91 681.617 148.785C681.766 148.66 681.883 148.469 681.969 148.211C682.062 147.945 682.121 147.672 682.145 147.391C682.168 147.109 682.176 146.734 682.168 146.266C682.16 145.234 682.102 144.523 681.992 144.133C681.891 143.734 681.668 143.5 681.324 143.43L675.488 142.41C674.473 142.238 673.766 141.852 673.367 141.25C672.969 140.648 672.758 139.676 672.734 138.332C672.734 137.613 672.77 137 672.84 136.492C672.918 135.977 673.047 135.527 673.227 135.145C673.414 134.754 673.641 134.441 673.906 134.207C674.18 133.973 674.535 133.785 674.973 133.645C675.418 133.496 675.902 133.398 676.426 133.352C676.957 133.297 677.605 133.27 678.371 133.27C678.996 133.27 679.531 133.285 679.977 133.316C680.43 133.34 680.867 133.387 681.289 133.457C681.719 133.527 682.074 133.625 682.355 133.75C682.637 133.875 682.895 134.039 683.129 134.242C683.371 134.438 683.559 134.68 683.691 134.969C683.824 135.25 683.926 135.582 683.996 135.965C684.066 136.348 684.102 136.789 684.102 137.289L682.016 137.77C681.938 136.91 681.887 136.422 681.863 136.305C681.77 135.906 681.547 135.637 681.195 135.496C680.805 135.332 679.988 135.25 678.746 135.25C678.066 135.25 677.504 135.27 677.059 135.309C676.621 135.348 676.262 135.406 675.98 135.484C675.699 135.555 675.488 135.664 675.348 135.812C675.215 135.961 675.125 136.121 675.078 136.293C675.031 136.457 675.008 136.676 675.008 136.949V138.977C675.008 139.711 675.328 140.133 675.969 140.242L680.164 140.957C680.555 141.02 680.867 141.074 681.102 141.121C681.336 141.168 681.605 141.23 681.91 141.309C682.215 141.387 682.453 141.469 682.625 141.555C682.797 141.641 682.988 141.75 683.199 141.883C683.41 142.016 683.574 142.164 683.691 142.328C683.809 142.492 683.926 142.688 684.043 142.914C684.168 143.141 684.258 143.398 684.312 143.688C684.375 143.969 684.426 144.293 684.465 144.66C684.504 145.02 684.523 145.426 684.523 145.879ZM700.777 133.539V144.473C700.777 145.41 700.734 146.215 700.648 146.887C700.57 147.559 700.426 148.156 700.215 148.68C700.004 149.195 699.738 149.617 699.418 149.945C699.105 150.266 698.691 150.531 698.176 150.742C697.668 150.945 697.098 151.086 696.465 151.164C695.832 151.242 695.066 151.281 694.168 151.281C693.301 151.281 692.562 151.246 691.953 151.176C691.344 151.105 690.781 150.977 690.266 150.789C689.75 150.594 689.332 150.34 689.012 150.027C688.699 149.707 688.43 149.293 688.203 148.785C687.977 148.27 687.816 147.664 687.723 146.969C687.637 146.273 687.594 145.441 687.594 144.473V133.539H689.973V144.777C689.973 145.426 689.973 145.895 689.973 146.184C689.98 146.473 690.004 146.828 690.043 147.25C690.082 147.664 690.133 147.949 690.195 148.105C690.258 148.254 690.359 148.441 690.5 148.668C690.648 148.895 690.812 149.039 690.992 149.102C691.18 149.156 691.434 149.227 691.754 149.312C692.074 149.398 692.418 149.449 692.785 149.465C693.16 149.473 693.625 149.477 694.18 149.477C694.836 149.477 695.383 149.457 695.82 149.418C696.266 149.379 696.652 149.301 696.98 149.184C697.309 149.066 697.559 148.934 697.73 148.785C697.91 148.629 698.051 148.402 698.152 148.105C698.262 147.809 698.332 147.5 698.363 147.18C698.395 146.859 698.41 146.434 698.41 145.902L698.398 133.539H700.777ZM714.406 151H704.516V133.539H714.301L714.535 135.344H706.895V140.957H713.422V142.855H706.895V149.207H714.641L714.406 151ZM729.055 145.879C729.055 146.387 729.039 146.848 729.008 147.262C728.977 147.668 728.918 148.043 728.832 148.387C728.754 148.723 728.668 149.02 728.574 149.277C728.48 149.535 728.348 149.766 728.176 149.969C728.004 150.164 727.832 150.332 727.66 150.473C727.496 150.613 727.277 150.734 727.004 150.836C726.738 150.93 726.48 151.004 726.23 151.059C725.98 151.121 725.668 151.168 725.293 151.199C724.918 151.23 724.559 151.25 724.215 151.258C723.879 151.273 723.465 151.281 722.973 151.281C722.043 151.281 721.262 151.254 720.629 151.199C720.004 151.145 719.469 151.027 719.023 150.848C718.586 150.668 718.246 150.484 718.004 150.297C717.762 150.102 717.57 149.797 717.43 149.383C717.289 148.961 717.195 148.559 717.148 148.176C717.109 147.793 717.074 147.25 717.043 146.547L719.211 146.195C719.234 146.367 719.258 146.609 719.281 146.922C719.328 147.406 719.371 147.75 719.41 147.953C719.457 148.148 719.543 148.367 719.668 148.609C719.793 148.852 719.988 149.012 720.254 149.09C720.52 149.16 720.867 149.223 721.297 149.277C721.727 149.332 722.301 149.359 723.02 149.359C723.613 149.359 724.102 149.344 724.484 149.312C724.867 149.281 725.203 149.219 725.492 149.125C725.781 149.023 726 148.91 726.148 148.785C726.297 148.66 726.414 148.469 726.5 148.211C726.594 147.945 726.652 147.672 726.676 147.391C726.699 147.109 726.707 146.734 726.699 146.266C726.691 145.234 726.633 144.523 726.523 144.133C726.422 143.734 726.199 143.5 725.855 143.43L720.02 142.41C719.004 142.238 718.297 141.852 717.898 141.25C717.5 140.648 717.289 139.676 717.266 138.332C717.266 137.613 717.301 137 717.371 136.492C717.449 135.977 717.578 135.527 717.758 135.145C717.945 134.754 718.172 134.441 718.438 134.207C718.711 133.973 719.066 133.785 719.504 133.645C719.949 133.496 720.434 133.398 720.957 133.352C721.488 133.297 722.137 133.27 722.902 133.27C723.527 133.27 724.062 133.285 724.508 133.316C724.961 133.34 725.398 133.387 725.82 133.457C726.25 133.527 726.605 133.625 726.887 133.75C727.168 133.875 727.426 134.039 727.66 134.242C727.902 134.438 728.09 134.68 728.223 134.969C728.355 135.25 728.457 135.582 728.527 135.965C728.598 136.348 728.633 136.789 728.633 137.289L726.547 137.77C726.469 136.91 726.418 136.422 726.395 136.305C726.301 135.906 726.078 135.637 725.727 135.496C725.336 135.332 724.52 135.25 723.277 135.25C722.598 135.25 722.035 135.27 721.59 135.309C721.152 135.348 720.793 135.406 720.512 135.484C720.23 135.555 720.02 135.664 719.879 135.812C719.746 135.961 719.656 136.121 719.609 136.293C719.562 136.457 719.539 136.676 719.539 136.949V138.977C719.539 139.711 719.859 140.133 720.5 140.242L724.695 140.957C725.086 141.02 725.398 141.074 725.633 141.121C725.867 141.168 726.137 141.23 726.441 141.309C726.746 141.387 726.984 141.469 727.156 141.555C727.328 141.641 727.52 141.75 727.73 141.883C727.941 142.016 728.105 142.164 728.223 142.328C728.34 142.492 728.457 142.688 728.574 142.914C728.699 143.141 728.789 143.398 728.844 143.688C728.906 143.969 728.957 144.293 728.996 144.66C729.035 145.02 729.055 145.426 729.055 145.879ZM746.621 135.344H739.414V141.039H745.555V142.938H739.414V151H737.035V133.539H746.387L746.621 135.344ZM759.102 151H749.211V133.539H758.996L759.23 135.344H751.59V140.957H758.117V142.855H751.59V149.207H759.336L759.102 151ZM772.18 151H762.289V133.539H772.074L772.309 135.344H764.668V140.957H771.195V142.855H764.668V149.207H772.414L772.18 151ZM788.34 140.734C788.34 141.805 788.332 142.688 788.316 143.383C788.309 144.07 788.273 144.777 788.211 145.504C788.148 146.223 788.082 146.793 788.012 147.215C787.941 147.637 787.809 148.07 787.613 148.516C787.426 148.953 787.238 149.281 787.051 149.5C786.871 149.711 786.594 149.93 786.219 150.156C785.844 150.383 785.477 150.535 785.117 150.613C784.758 150.691 784.27 150.77 783.652 150.848C783.043 150.926 782.441 150.973 781.848 150.988C781.262 150.996 780.516 151 779.609 151H775.367V133.539H781.414C782.398 133.539 783.23 133.582 783.91 133.668C784.59 133.746 785.195 133.898 785.727 134.125C786.266 134.344 786.695 134.621 787.016 134.957C787.336 135.293 787.598 135.742 787.801 136.305C788.012 136.859 788.152 137.484 788.223 138.18C788.301 138.875 788.34 139.727 788.34 140.734ZM785.984 140.77C785.984 140.051 785.98 139.535 785.973 139.223C785.973 138.902 785.945 138.504 785.891 138.027C785.844 137.551 785.773 137.227 785.68 137.055C785.594 136.875 785.453 136.648 785.258 136.375C785.062 136.102 784.832 135.93 784.566 135.859C784.309 135.781 783.965 135.688 783.535 135.578C783.113 135.461 782.641 135.395 782.117 135.379C781.594 135.355 780.957 135.344 780.207 135.344H777.746V149.207H780.559C781.23 149.207 781.754 149.203 782.129 149.195C782.504 149.18 782.91 149.145 783.348 149.09C783.785 149.035 784.105 148.965 784.309 148.879C784.52 148.785 784.746 148.645 784.988 148.457C785.23 148.262 785.398 148.043 785.492 147.801C785.586 147.551 785.68 147.227 785.773 146.828C785.867 146.422 785.926 145.977 785.949 145.492C785.973 145.008 785.984 144.422 785.984 143.734V140.77Z" fill="#3294F8"/>
</g>
<defs>
<filter id="filter0_f_401_609" x="-530" y="-496" width="1036" height="1036" filterUnits="userSpaceOnUse" color-interpolation-filters="sRGB">
<feFlood flood-opacity="0" result="BackgroundImageFix"/>
<feBlend mode="normal" in="SourceGraphic" in2="BackgroundImageFix" result="shape"/>
<feGaussianBlur stdDeviation="200" result="effect1_foregroundBlur_401_609"/>
</filter>
<filter id="filter1_f_401_609" x="909.427" y="-402.708" width="891.29" height="891.29" filterUnits="userSpaceOnUse" color-interpolation-filters="sRGB">
<feFlood flood-opacity="0" result="BackgroundImageFix"/>
<feBlend mode="normal" in="SourceGraphic" in2="BackgroundImageFix" result="shape"/>
<feGaussianBlur stdDeviation="184" result="effect1_foregroundBlur_401_609"/>
</filter>
<filter id="filter2_f_401_609" x="60" y="23" width="1315" height="476" filterUnits="userSpaceOnUse" color-interpolation-filters="sRGB">
<feFlood flood-opacity="0" result="BackgroundImageFix"/>
<feBlend mode="normal" in="SourceGraphic" in2="BackgroundImageFix" result="shape"/>
<feGaussianBlur stdDeviation="106" result="effect1_foregroundBlur_401_609"/>
</filter>
<clipPath id="clip0_401_609">
<rect width="1440" height="296" fill="white"/>
</clipPath>
<clipPath id="clip1_401_609">
<rect width="45" height="40" fill="white" transform="translate(697.5 64)"/>
</clipPath>
</defs>
</svg>
